<svg xmlns="http://www.w3.org/2000/svg" viewBox="0 0 500 500"><defs><style>.cls-1{fill:#87c759;}.cls-2{fill:#087dae;}.cls-3{fill:#009ea1;}</style></defs><g id="Layer_1" data-name="Layer 1"><path class="cls-1" d="M161.93,313.07a43.38,43.38,0,0,0-.08,86.76l179.68.17a43.38,43.38,0,0,0,.08-86.75Z"/><path class="cls-2" d="M205.42,143.42a43.34,43.34,0,1,0-86.67-.08l-.2,213.05a43.34,43.34,0,1,0,86.68.08Z"/><path class="cls-3" d="M161.93,313.07a43.37,43.37,0,1,0,43.3,43.4l0-43.36Z"/><path class="cls-1" d="M384,390.46c0-6.27,4.55-10.55,10.12-10.55s10.06,4.28,10.06,10.55S399.64,401,394.13,401,384,396.72,384,390.46Zm18,0c0-5-3.43-8.62-7.92-8.62s-8,3.58-8,8.62,3.48,8.56,8,8.56S402.05,395.54,402.05,390.46Zm-11.83-5.57h4.07c2.25,0,4.23.91,4.23,3.48a3.12,3.12,0,0,1-2,2.94l2.47,4.44h-2.47L394.61,392h-2.19v3.74h-2.2Zm3.59,5.4c1.44,0,2.3-.64,2.3-1.81s-.59-1.77-2.19-1.77h-1.5v3.58Z"/></g></svg>